# xmcd
#
# Track frame offsets:
#	150
#	15992
#	29942
#	43822
#	62162
#	75712
#	88897
#	102217
#	117295
#	130212
#
# Disc length: 1975 seconds
#
# Revision: 1
# Processed by: cddbd v1.5.2PL0 Copyright (c) Steve Scherf et al.
# Submitted via: EasyCDDAExtractor 7.0.3.1
#
DISCID=8507b50a
DTITLE=Michael Mason - Say You're Gonna Stay
DYEAR=1997
DGENRE=Country
TTITLE0=The Right Thing
TTITLE1=The Hardest Thing
TTITLE2=Outlaw On the Run
TTITLE3=The Woman I Can't Do Without
TTITLE4=B-Y-O-B
TTITLE5=Guitars and Girls
TTITLE6=Our Love
TTITLE7=Ride With the Rebels
TTITLE8=Cool
TTITLE9=Say You're Gonna Stay
EXTD=
EXTT0=
EXTT1=
EXTT2=
EXTT3=
EXTT4=
EXTT5=
EXTT6=
EXTT7=
EXTT8=
EXTT9=
PLAYORDER=
